Coordinates
version=1
nRows=39
nColumns=18
inDegrees=yes

Units are S.I. units (second, meters, Newtons, ...)
If the header above contains a line with 'inDegrees', this indicates whether rotational values are in degrees (yes) or radians (no).

endheader
time	ground_thorax_rot_x	ground_thorax_rot_y	ground_thorax_rot_z	ground_thorax_tx	ground_thorax_ty	ground_thorax_tz	clav_prot	clav_elev	scapula_abduction	scapula_elevation	scapula_upward_rot	scapula_winging	plane_elv	shoulder_elv	axial_rot	elbow_flexion	pro_sup
      0.00000000	      1.53912403	     -5.39939724	    -10.48387462	      0.00000000	      0.00000000	      0.00000000	    -22.83576995	     -5.91285055	    -12.96376291	     -5.09950847	     12.28953925	      6.13533390	    -24.04058105	     13.90599051	     31.54462072	      0.00000000	     34.32000000
      0.01000000	      1.63967964	     -5.49583839	    -10.50867539	      0.00000000	      0.00000000	      0.00000000	    -22.81245489	     -5.88613601	    -13.00263876	     -5.04387222	     12.16192323	      6.15563016	    -22.97301219	     14.14992727	     30.51289526	      0.00000000	     34.32000000
      0.02000000	      1.55639990	     -5.38433808	    -10.40198915	      0.00000000	      0.00000000	      0.00000000	    -22.94448237	     -5.64159917	    -12.95418325	     -5.01646987	     12.74393068	      5.93009153	    -26.67005109	     12.47465125	     44.09098398	      0.00000000	     34.32000000
      0.03000000	      1.36275630	     -5.34363462	    -10.38688747	      0.00000000	      0.00000000	      0.00000000	    -22.92889629	     -5.93896035	    -13.09318304	     -5.13693979	     12.33367062	      6.13805118	    -26.25385918	     12.87096779	     42.33695847	      0.00000000	     34.32000000
      0.04000000	      1.53446758	     -5.33123139	    -10.40119316	      0.00000000	      0.00000000	      0.00000000	    -22.98026928	     -5.75719085	    -13.06881449	     -5.07114734	     12.60462996	      6.00732294	    -26.40630224	     12.75859190	     41.85154796	      0.00000000	     34.32000000
      0.05000000	      1.58415724	     -5.18647672	    -10.37297629	      0.00000000	      0.00000000	      0.00000000	    -23.13093942	     -5.72445221	    -13.26349616	     -5.08822709	     12.73110403	      5.97006795	    -26.99658481	     12.48790200	     44.28035243	      0.00000000	     34.32000000
      0.06000000	      1.58889280	     -5.35388362	    -10.39873305	      0.00000000	      0.00000000	      0.00000000	    -22.98903107	     -5.75169188	    -13.00017691	     -5.10616951	     12.75255915	      5.97003814	    -27.00269185	     12.46829807	     45.01536492	      0.00000000	     34.32000000
      0.07000000	      1.60623194	     -5.43542651	    -10.38707843	      0.00000000	      0.00000000	      0.00000000	    -22.92688480	     -5.72526137	    -12.93123438	     -5.06732486	     12.69649080	      5.97120603	    -26.06671276	     12.55773221	     43.87588318	      0.00000000	     34.32000000
      0.08000000	      1.68084808	     -5.41381594	    -10.41154328	      0.00000000	      0.00000000	      0.00000000	    -22.92939367	     -5.75437836	    -12.92891399	     -5.08994148	     12.69650870	      5.98224075	    -26.11201101	     12.64856060	     43.87837243	      0.00000000	     34.32000000
      0.09000000	      1.73694981	     -5.57287247	    -10.27731055	      0.00000000	      0.00000000	      0.00000000	    -22.71198815	     -5.65188687	    -12.75636295	     -4.91606876	     12.38540778	      6.01211897	    -24.49518103	     13.22813920	     41.29774993	      0.00000000	     34.32000000
      0.10000000	      1.45143713	     -5.31816546	    -10.40651658	      0.00000000	      0.00000000	      0.00000000	    -22.97476561	     -5.94614712	    -13.04666221	     -5.20208920	     12.55005976	      6.09011154	    -26.81121061	     12.70501647	     42.98364703	      0.00000000	     34.32000000
      0.11000000	      1.57159152	     -5.40672356	    -10.38245135	      0.00000000	      0.00000000	      0.00000000	    -22.93024783	     -5.76222839	    -12.91137489	     -5.10376638	     12.72618211	      5.97762065	    -26.98812204	     12.43052505	     45.49521915	      0.00000000	     34.32000000
      0.12000000	      1.57966375	     -5.42216571	    -10.38452018	      0.00000000	      0.00000000	      0.00000000	    -22.92179322	     -5.76367504	    -12.89589571	     -5.10471969	     12.72737040	      5.97792400	    -26.96544745	     12.44595722	     45.45275779	      0.00000000	     34.32000000
      0.13000000	      1.31196034	     -5.32489090	    -10.50279892	      0.00000000	      0.00000000	      0.00000000	    -22.99624152	     -6.15902723	    -13.17606721	     -5.30284505	     12.30339132	      6.22991879	    -25.86001108	     13.06836673	     39.60400703	      0.00000000	     34.32000000
      0.14000000	      1.33316117	     -5.29799886	    -10.47181080	      0.00000000	      0.00000000	      0.00000000	    -22.99470440	     -6.15810353	    -13.16550886	     -5.30569345	     12.31733675	      6.22622598	    -25.85467860	     13.06723095	     39.61550137	      0.00000000	     34.32000000
      0.15000000	      1.50514394	     -5.34377129	    -10.43781834	      0.00000000	      0.00000000	      0.00000000	    -22.93534053	     -5.96979496	    -13.08802156	     -5.16530523	     12.34967868	      6.14592137	    -25.03378363	     13.22360312	     38.06262452	      0.00000000	     34.32000000
      0.16000000	      1.60653503	     -5.52184600	    -10.57830060	      0.00000000	      0.00000000	      0.00000000	    -22.85887732	     -5.89854585	    -12.55250920	     -5.29680643	     13.08029652	      5.94054838	    -27.01584887	     12.72744025	     39.17169094	      0.00000000	     34.32000000
      0.17000000	      1.57821507	     -5.28220218	    -10.42278147	      0.00000000	      0.00000000	      0.00000000	    -23.05772794	     -5.86690109	    -13.11392193	     -5.18892268	     12.71371618	      6.02384889	    -27.02507115	     12.42808507	     45.65760957	      0.00000000	     34.32000000
      0.18000000	      1.56556742	     -5.26285092	    -10.38107312	      0.00000000	      0.00000000	      0.00000000	    -23.08241407	     -5.84350891	    -13.19720390	     -5.15647007	     12.65262217	      6.03087526	    -26.79107224	     12.49385422	     45.11037016	      0.00000000	     34.32000000
      0.19000000	      1.50405799	     -5.29367119	    -10.42307413	      0.00000000	      0.00000000	      0.00000000	    -23.04238662	     -5.87522853	    -13.14654793	     -5.16668651	     12.60774964	      6.05217959	    -26.34009992	     12.62919186	     42.52554490	      0.00000000	     34.32000000
      0.20000000	      1.59090864	     -5.30265805	    -10.40173763	      0.00000000	      0.00000000	      0.00000000	    -23.01379409	     -5.71987768	    -13.04000541	     -5.08777311	     12.77020303	      5.95472580	    -26.67843466	     12.56165415	     43.22028310	      0.00000000	     34.32000000
      0.21000000	      1.58709293	     -5.34141874	    -10.37829609	      0.00000000	      0.00000000	      0.00000000	    -22.95955205	     -5.68455969	    -12.94267248	     -5.06284924	     12.79138234	      5.93477917	    -26.69471422	     12.57684759	     42.89194402	      0.00000000	     34.32000000
      0.22000000	      1.43085086	     -5.22520991	    -10.41525763	      0.00000000	      0.00000000	      0.00000000	    -23.04633910	     -5.92826458	    -13.24804863	     -5.15876120	     12.42090374	      6.11699902	    -25.44320660	     13.06002521	     39.43449156	      0.00000000	     34.32000000
      0.23000000	      1.42705841	     -5.26397811	    -10.41083767	      0.00000000	      0.00000000	      0.00000000	    -22.97451834	     -5.95610201	    -13.11510214	     -5.17714814	     12.42582483	      6.12378443	    -25.81823268	     13.05972655	     39.03459938	      0.00000000	     34.32000000
      0.24000000	      1.48817628	     -5.46279413	    -10.27406189	      0.00000000	      0.00000000	      0.00000000	    -22.69501639	     -5.81741152	    -12.84848107	     -4.96859552	     12.10470290	      6.13941057	    -24.15942656	     13.55562762	     36.85088845	      0.00000000	     34.32000000
      0.25000000	      1.49427200	     -5.32875141	    -10.40406702	      0.00000000	      0.00000000	      0.00000000	    -22.91802498	     -5.78859286	    -12.90447370	     -5.11417327	     12.69106719	      5.99575496	    -26.43611225	     12.83143987	     40.40734654	      0.00000000	     34.32000000
      0.26000000	      1.57816709	     -5.42281112	    -10.39004305	      0.00000000	      0.00000000	      0.00000000	    -22.86164652	     -5.65817040	    -12.74979777	     -5.05012957	     12.84337450	      5.90858217	    -27.04161950	     12.35356577	     45.42159330	      0.00000000	     34.32000000
      0.27000000	      1.60971751	     -5.44843383	    -10.39826151	      0.00000000	      0.00000000	      0.00000000	    -22.85416614	     -5.62361866	    -12.70484716	     -5.04141532	     12.91342123	      5.87933815	    -27.01950146	     12.35410533	     45.33294349	      0.00000000	     34.32000000
      0.28000000	      1.60409611	     -5.54231490	    -10.37413291	      0.00000000	      0.00000000	      0.00000000	    -22.79870340	     -5.61003989	    -12.64117428	     -5.01458122	     12.86350299	      5.88415151	    -26.28442096	     12.39505474	     44.43342366	      0.00000000	     34.32000000
      0.29000000	      1.49845422	     -5.45706065	    -10.39835418	      0.00000000	      0.00000000	      0.00000000	    -22.82507115	     -5.79525792	    -12.79934542	     -5.08773116	     12.59219801	      6.01835190	    -25.46311586	     13.00657063	     39.01185995	      0.00000000	     34.32000000
      0.30000000	      1.42337130	     -5.29266610	    -10.31794120	      0.00000000	      0.00000000	      0.00000000	    -22.92455302	     -5.82386226	    -13.03387437	     -5.08402637	     12.47086445	      6.06206806	    -25.72710371	     13.08076018	     38.80862510	      0.00000000	     34.32000000
      0.31000000	      1.60678410	     -5.35860976	    -10.35177281	      0.00000000	      0.00000000	      0.00000000	    -22.92804911	     -5.57276481	    -12.83121013	     -5.01273212	     12.93614085	      5.85794948	    -26.65054177	     12.52067490	     42.12550749	      0.00000000	     34.32000000
      0.32000000	      1.56294964	     -5.23014141	    -10.33210368	      0.00000000	      0.00000000	      0.00000000	    -22.95766926	     -5.57764623	    -13.00225711	     -4.96328740	     12.72583663	      5.91142880	    -26.40199303	     12.66920585	     41.42987387	      0.00000000	     34.32000000
      0.33000000	      1.52634400	     -5.27800504	    -10.34210768	      0.00000000	      0.00000000	      0.00000000	    -22.93773459	     -5.58952550	    -12.97027053	     -4.96886977	     12.71693433	      5.91749714	    -26.06807716	     12.61259912	     41.55073076	      0.00000000	     34.32000000
      0.34000000	      1.57848540	     -5.22126604	    -10.35111154	      0.00000000	      0.00000000	      0.00000000	    -22.99429271	     -5.54602415	    -13.02789045	     -4.96162505	     12.80402882	      5.88235247	    -26.73761181	     12.25547829	     45.42514936	      0.00000000	     34.32000000
      0.35000000	      1.38849064	     -5.08800605	    -10.39794492	      0.00000000	      0.00000000	      0.00000000	    -23.08357365	     -5.80506636	    -13.33535948	     -5.06867677	     12.43070143	      6.07038181	    -25.66097457	     12.78787428	     40.45770294	      0.00000000	     34.32000000
      0.36000000	      1.50694068	     -5.20133822	    -10.45308865	      0.00000000	      0.00000000	      0.00000000	    -23.02817810	     -5.69216325	    -13.18194196	     -5.01711679	     12.57816992	      5.99140581	    -25.11060919	     12.76498418	     39.77501696	      0.00000000	     34.32000000
      0.37000000	      1.56382076	     -5.31838337	    -10.49253936	      0.00000000	      0.00000000	      0.00000000	    -22.93459973	     -5.65669900	    -12.94330601	     -5.02299597	     12.72689015	      5.93935110	    -25.31612314	     12.74444607	     40.59316214	      0.00000000	     34.32000000
      0.38000000	      1.60267179	     -5.48979114	    -10.38515325	      0.00000000	      0.00000000	      0.00000000	    -22.81920777	     -5.49530484	    -12.64119805	     -4.95577288	     12.97158286	      5.81729571	    -26.50641768	     12.30375706	     43.79481344	      0.00000000	     34.32000000
